<svg width="36" height="36" viewBox="0 0 36 36" fill="none" xmlns="http://www.w3.org/2000/svg">
<rect width="36" height="36" rx="18" fill="#1F8B48"/>
<path fill-rule="evenodd" clip-rule="evenodd" d="M9.94824 12H26.0512C26.5732 12 27.0002 12.427 27.0002 12.949V13.051C27.0002 13.573 26.5732 14 26.0512 14H9.94824C9.42624 14 9.00024 13.573 9.00024 13.051V12.949C9.00024 12.427 9.42624 12 9.94824 12ZM26.0512 17H9.94824C9.42624 17 9.00024 17.427 9.00024 17.949V18.051C9.00024 18.573 9.42624 19 9.94824 19H26.0512C26.5732 19 27.0002 18.573 27.0002 18.051V17.949C27.0002 17.427 26.5732 17 26.0512 17ZM26.0512 22H9.94824C9.42624 22 9.00024 22.427 9.00024 22.949V23.051C9.00024 23.573 9.42624 24 9.94824 24H26.0512C26.5732 24 27.0002 23.573 27.0002 23.051V22.949C27.0002 22.427 26.5732 22 26.0512 22Z" fill="white"/>
</svg>
